<svg width="34" height="34" viewBox="0 0 34 34" fill="none" xmlns="http://www.w3.org/2000/svg">
<circle cx="17" cy="17" r="15.5" fill="#8ECAE6" stroke="white" stroke-width="3"/>
<path d="M17.0004 9.22223C14.8615 9.22223 13.1115 11.4 13.1115 14.0833C13.1115 16.7667 14.8615 18.9445 17.0004 18.9445C19.1393 18.9445 20.8893 16.7667 20.8893 14.0833C20.8893 11.4 19.1393 9.22223 17.0004 9.22223ZM12.9365 18.9445C10.8754 19.0417 9.22266 20.7333 9.22266 22.8333V24.7778H24.7782V22.8333C24.7782 20.7333 23.1449 19.0417 21.0643 18.9445C20.0143 20.1306 18.5754 20.8889 17.0004 20.8889C15.4254 20.8889 13.9865 20.1306 12.9365 18.9445Z" fill="white"/>
</svg>
